<?xml version="1.0" standalone="no"?>
<!DOCTYPE svg PUBLIC "-//W3C//DTD SVG 20010904//EN"
 "http://www.w3.org/TR/2001/REC-SVG-20010904/DTD/svg10.dtd">
<svg version="1.0" xmlns="http://www.w3.org/2000/svg"
 width="200.000000pt" height="200.000000pt" viewBox="0 0 200.000000 200.000000"
 preserveAspectRatio="xMidYMid meet">

<g transform="translate(0.000000,200.000000) scale(0.100000,-0.100000)"
fill="#000000" stroke="none">
<path d="M882 1339 c-62 -40 -112 -78 -112 -85 0 -23 15 -17 119 51 54 36 102
65 106 65 4 0 55 -30 112 -66 75 -48 107 -64 115 -56 8 8 -22 32 -105 86 -64
42 -118 76 -120 76 -1 0 -53 -32 -115 -71z"/>
<path d="M270 930 l0 -90 35 0 c43 0 55 20 55 94 0 63 -16 86 -61 86 l-29 0 0
-90z m58 1 c2 -44 -1 -67 -10 -72 -22 -14 -28 1 -28 72 0 62 2 70 18 67 14 -3
18 -16 20 -67z"/>
<path d="M389 930 c-13 -74 -13 -90 -2 -90 7 0 13 7 13 15 0 8 9 15 20 15 11
0 20 -7 20 -15 0 -8 7 -15 16 -15 12 0 14 7 10 28 -3 15 -11 55 -17 90 -9 46
-16 62 -28 62 -13 0 -20 -19 -32 -90z m43 0 c2 -28 0 -40 -9 -40 -14 0 -17 37
-7 64 9 24 12 20 16 -24z"/>
<path d="M490 930 l0 -90 33 0 c18 0 38 5 45 12 14 14 16 64 3 72 -5 4 -5 18
2 35 14 39 -4 61 -49 61 l-34 0 0 -90z m55 40 c0 -13 -6 -25 -12 -27 -9 -3
-13 6 -13 27 0 21 4 30 13 28 6 -3 12 -15 12 -28z m3 -82 c-4 -46 -28 -49 -28
-4 0 26 4 36 16 36 11 0 14 -8 12 -32z"/>
<path d="M612 1008 c-19 -19 -14 -43 18 -83 17 -21 30 -44 30 -51 0 -23 -19
-25 -32 -4 -16 25 -28 26 -28 0 0 -40 73 -48 85 -9 7 20 -15 68 -39 88 -20 17
-21 51 -2 51 7 0 16 -10 20 -22 5 -19 8 -20 15 -9 23 36 -36 70 -67 39z"/>
<path d="M760 930 l0 -90 35 0 c19 0 35 5 35 10 0 6 -9 10 -20 10 -16 0 -20 7
-20 30 0 20 5 30 15 30 8 0 15 5 15 10 0 6 -7 10 -15 10 -10 0 -15 10 -15 30
0 23 4 30 20 30 11 0 20 5 20 10 0 6 -16 10 -35 10 l-35 0 0 -90z"/>
<path d="M850 930 c0 -76 2 -90 16 -90 14 0 16 9 12 58 l-5 57 18 -40 c10 -22
20 -48 23 -57 2 -10 9 -18 15 -18 7 0 11 32 11 90 0 53 -4 90 -10 90 -5 0 -10
-26 -11 -57 l0 -58 -22 58 c-32 86 -47 75 -47 -33z"/>
<path d="M960 1010 c0 -5 7 -10 15 -10 12 0 15 -16 15 -80 0 -64 3 -80 15 -80
12 0 15 16 15 80 0 64 3 80 15 80 8 0 15 5 15 10 0 6 -20 10 -45 10 -25 0 -45
-4 -45 -10z"/>
<path d="M1070 930 l0 -90 35 0 c19 0 35 5 35 10 0 6 -9 10 -20 10 -16 0 -20
7 -20 30 0 20 5 30 15 30 8 0 15 5 15 10 0 6 -7 10 -15 10 -10 0 -15 10 -15
30 0 23 4 30 20 30 11 0 20 5 20 10 0 6 -16 10 -35 10 l-35 0 0 -90z"/>
<path d="M1160 930 c0 -73 3 -90 15 -90 11 0 15 11 15 36 0 41 15 37 25 -6 4
-17 13 -30 22 -30 10 0 13 6 9 16 -14 38 -17 62 -7 68 15 10 14 69 -1 84 -7 7
-27 12 -45 12 l-33 0 0 -90z m60 36 c0 -21 -6 -36 -15 -40 -12 -4 -15 3 -15
34 0 29 4 40 15 40 10 0 15 -10 15 -34z"/>
<path d="M1280 930 c0 -73 3 -90 15 -90 9 0 15 9 15 23 0 16 9 28 25 35 21 10
25 18 25 55 0 50 -13 67 -52 67 l-28 0 0 -90z m58 33 c2 -18 -3 -35 -12 -43
-14 -11 -16 -7 -16 35 0 53 23 60 28 8z"/>
<path d="M1390 930 c0 -53 4 -90 10 -90 6 0 10 14 10 30 0 17 4 30 9 30 5 0
14 -13 20 -30 5 -16 17 -30 25 -30 13 0 13 4 1 33 -9 21 -10 38 -4 48 13 20
11 73 -3 87 -7 7 -25 12 -40 12 l-28 0 0 -90z m58 42 c4 -25 -15 -55 -29 -46
-5 3 -9 21 -9 40 0 28 4 35 18 32 9 -2 18 -14 20 -26z"/>
<path d="M1500 930 c0 -73 3 -90 15 -90 12 0 15 17 15 90 0 73 -3 90 -15 90
-12 0 -15 -17 -15 -90z"/>
<path d="M1572 1008 c-18 -18 -16 -143 4 -162 18 -19 20 -19 45 -6 10 6 19 20
19 30 0 26 -16 26 -23 -1 -3 -12 -10 -18 -16 -14 -15 8 -14 145 0 145 6 0 13
-9 16 -20 8 -30 25 -24 21 8 -2 20 -9 28 -28 30 -14 2 -31 -3 -38 -10z"/>
<path d="M1670 930 l0 -90 36 0 c21 0 33 4 29 10 -3 6 -15 10 -26 10 -29 0
-27 55 4 64 l22 7 -22 9 c-30 12 -32 60 -3 60 11 0 20 5 20 10 0 6 -13 10 -30
10 l-30 0 0 -90z"/>
</g>
</svg>
